<svg xmlns="http://www.w3.org/2000/svg" version="1.1" width="100" height="100" viewBox="0 0 100 100"><rect x="0" y="0" width="100" height="100" fill="#ffffff"/><g transform="scale(4.762)"><g transform="translate(0,0)"><path fill-rule="evenodd" d="M10 0L10 1L11 1L11 0ZM12 0L12 2L13 2L13 0ZM8 2L8 3L9 3L9 2ZM10 2L10 3L11 3L11 2ZM12 3L12 4L11 4L11 5L10 5L10 4L9 4L9 6L8 6L8 8L4 8L4 9L3 9L3 8L0 8L0 9L1 9L1 10L0 10L0 13L2 13L2 11L3 11L3 13L5 13L5 12L6 12L6 13L7 13L7 12L6 12L6 11L8 11L8 12L9 12L9 13L8 13L8 17L9 17L9 18L8 18L8 21L9 21L9 19L10 19L10 21L12 21L12 19L10 19L10 17L11 17L11 18L12 18L12 17L13 17L13 16L14 16L14 21L15 21L15 20L16 20L16 21L17 21L17 20L18 20L18 21L19 21L19 20L20 20L20 21L21 21L21 18L20 18L20 17L19 17L19 16L20 16L20 15L19 15L19 14L20 14L20 13L21 13L21 12L19 12L19 10L21 10L21 9L19 9L19 8L18 8L18 9L17 9L17 10L16 10L16 9L15 9L15 8L12 8L12 9L11 9L11 6L12 6L12 7L13 7L13 6L12 6L12 5L13 5L13 3ZM9 6L9 9L8 9L8 10L10 10L10 6ZM2 9L2 10L3 10L3 11L4 11L4 12L5 12L5 11L6 11L6 10L7 10L7 9L6 9L6 10L5 10L5 9L4 9L4 10L3 10L3 9ZM12 9L12 11L13 11L13 10L15 10L15 12L12 12L12 14L11 14L11 15L12 15L12 14L13 14L13 15L14 15L14 16L16 16L16 13L15 13L15 12L16 12L16 10L15 10L15 9ZM18 9L18 10L17 10L17 11L18 11L18 10L19 10L19 9ZM4 10L4 11L5 11L5 10ZM10 12L10 13L11 13L11 12ZM18 12L18 13L17 13L17 15L18 15L18 16L17 16L17 17L15 17L15 18L16 18L16 19L17 19L17 17L18 17L18 16L19 16L19 15L18 15L18 13L19 13L19 12ZM13 13L13 14L14 14L14 15L15 15L15 14L14 14L14 13ZM9 14L9 15L10 15L10 14ZM9 16L9 17L10 17L10 16ZM11 16L11 17L12 17L12 16ZM18 18L18 19L20 19L20 18ZM0 0L0 7L7 7L7 0ZM1 1L1 6L6 6L6 1ZM2 2L2 5L5 5L5 2ZM14 0L14 7L21 7L21 0ZM15 1L15 6L20 6L20 1ZM16 2L16 5L19 5L19 2ZM0 14L0 21L7 21L7 14ZM1 15L1 20L6 20L6 15ZM2 16L2 19L5 19L5 16Z" fill="#000000"/></g></g></svg>